<svg width="20" height="20" viewBox="0 0 20 20" fill="none" xmlns="http://www.w3.org/2000/svg">
<path d="M0 4C0 1.79086 1.79086 0 4 0H16C18.2091 0 20 1.79086 20 4V16C20 18.2091 18.2091 20 16 20H4C1.79086 20 0 18.2091 0 16V4Z" fill="#8E8EA9"/>
<path d="M9.83333 5C10.0476 5 10.257 5.06747 10.4352 5.19388C10.6134 5.3203 10.7522 5.49997 10.8342 5.71019C10.9162 5.9204 10.9377 6.15172 10.8959 6.37488C10.8541 6.59805 10.7509 6.80304 10.5994 6.96393C10.4479 7.12482 10.2548 7.23439 10.0447 7.27878C9.83454 7.32317 9.61671 7.30039 9.41876 7.21331C9.22081 7.12624 9.05161 6.97878 8.93257 6.78959C8.81354 6.6004 8.75 6.37798 8.75 6.15044C8.75 5.84533 8.86414 5.55271 9.0673 5.33696C9.27047 5.12121 9.54602 5 9.83333 5ZM12.5 15H7.5V13.5841H9.33333V9.69027H8V8.27434H10.6667V13.5841H12.5V15Z" fill="white"/>
</svg>
