<svg id="Layer_1" data-name="Layer 1" xmlns="http://www.w3.org/2000/svg" width="161.545" height="47.17" viewBox="0 0 161.545 47.17">
  <path id="Path_9006" data-name="Path 9006" d="M971.929,62.75h-4.667L949,106.316l5.588,2.665,6.538-16.094h16.908l6.653,15.979,5.751-2.789Zm-8.167,23.964L969.6,72.336l5.943,14.378Z" transform="translate(-949 -61.811)" fill="#009967"/>
  <path id="Path_9007" data-name="Path 9007" d="M1017.412,84.81V78.148s-21.012-1.562-21.012,15c0,16.947,18.567,15.739,21.088,15.739v-6.413s-15.04,2.54-15.04-9.327C1002.477,82.989,1017.412,84.81,1017.412,84.81Z" transform="translate(-950.964 -62.447)" fill="#009967"/>
  <path id="Path_9008" data-name="Path 9008" d="M1045.28,77.27a14.474,14.474,0,0,0-9.1,3.489V77.883H1030v30.856h6.193V87.469c10.276-7.515,10.611-.508,10.611-.508v21.682h6.3V84.891C1053.092,83.568,1051.232,77.27,1045.28,77.27Z" transform="translate(-952.357 -62.413)" fill="#009967"/>
  <path id="Path_9009" data-name="Path 9009" d="M1088.232,93.489s2.223-16.219-11.207-16.219-12.586,13.8-12.586,15.73-.354,16.947,22.049,15.605v-5.751s-16.43,1.812-15.866-9.317Zm-11.207-10.161c4.438,0,5.147,4.467,5.147,4.467h-10.744A5.224,5.224,0,0,1,1077.026,83.328Z" transform="translate(-953.785 -62.413)" fill="#009967"/>
  <path id="Path_9010" data-name="Path 9010" d="M1115.683,83.818V77.645s-14.693-1.572-16.219,7.141c-.469,3.384.116,6.173,3.384,8.224s7.668,3.633,7.936,6.3c.183,2.08-1.984,3.393-3.623,3.393h-8.052l.125,5.751h6.643s10.544-.23,10.86-9.193c.344-4.965-4.678-7.755-7.008-8.838s-5.014-2.3-4.429-4.352C1105.926,83.9,1111.247,83.339,1115.683,83.818Z" transform="translate(-955.223 -62.423)" fill="#009967"/>
  <path id="Path_9011" data-name="Path 9011" d="M1113.971,66.92h-.115v1.342h-.576V65.07h1.083a1.041,1.041,0,0,1,.633.163.715.715,0,0,1,.25.6.954.954,0,0,1-.1.489.445.445,0,0,1-.375.278.482.482,0,0,1,.346.2.641.641,0,0,1,.095.383v.7c0,.182.046.288.1.316v.058h-.632a2.315,2.315,0,0,1-.057-.288v-.518a2.138,2.138,0,0,0,0-.316.261.261,0,0,0-.182-.22h-.47Zm-.115-1.342v.872h.44a.307.307,0,0,0,.259-.105.512.512,0,0,0,.1-.345.426.426,0,0,0-.1-.335.383.383,0,0,0-.278-.086Z" transform="translate(-955.809 -61.907)" fill="#009967"/>
  <path id="Path_9012" data-name="Path 9012" d="M1114.219,69.727a3.154,3.154,0,1,1,3.039-3.163A3.1,3.1,0,0,1,1114.219,69.727Zm0-5.675a2.521,2.521,0,1,0,2.435,2.511,2.464,2.464,0,0,0-2.435-2.531Z" transform="translate(-955.713 -61.838)" fill="#009967"/>
  <path id="Path_9013" data-name="Path 9013" d="M1015.747,61.77v12h-2.263V63.745L1011.3,73.771h-2.386L1006.8,63.725V73.771h-2.253v-12h3.508l2.1,9.47,2.1-9.47Z" transform="translate(-951.303 -61.77)" fill="#009967"/>
  <path id="Path_9014" data-name="Path 9014" d="M1024.063,71.287h2.32a3.694,3.694,0,0,1-1.554,2.224,4.594,4.594,0,0,1-5.252-.441,5.2,5.2,0,0,1-1.228-3.834,4.689,4.689,0,0,1,1.15-3.336,4.285,4.285,0,0,1,5.589-.22,5.046,5.046,0,0,1,1.389,3.968v.431H1020.6a2.784,2.784,0,0,0,.6,1.677,1.919,1.919,0,0,0,1.4.5,1.834,1.834,0,0,0,.959-.249,1.155,1.155,0,0,0,.5-.719Zm-3.393-2.751h3.489a2.27,2.27,0,0,0-.633-1.467,1.6,1.6,0,0,0-1.1-.412C1021.389,66.658,1020.813,67.29,1020.669,68.536Z" transform="translate(-951.874 -61.894)" fill="#009967"/>
  <path id="Path_9015" data-name="Path 9015" d="M1036.456,67.731v6.164H1034.2V68.469a2.529,2.529,0,0,0-.192-1.1,1.3,1.3,0,0,0-1.256-.633,1.637,1.637,0,0,0-1.274.527,2.1,2.1,0,0,0-.5,1.514v5.119h-2.272v-8.9h2.2v1.3a3.566,3.566,0,0,1,.794-.959,2.882,2.882,0,0,1,1.813-.575,2.943,2.943,0,0,1,2.109.748A2.879,2.879,0,0,1,1036.456,67.731Z" transform="translate(-952.304 -61.894)" fill="#009967"/>
  <path id="Path_9016" data-name="Path 9016" d="M1042.01,62.49V64.9h1.41v1.658h-1.41v4.793c0,.316,0,.508.145.6a1.316,1.316,0,0,0,.777.134h.487V73.83a5.269,5.269,0,0,1-.574,0h-.785a2.734,2.734,0,0,1-1.918-.508,2,2,0,0,1-.421-1.428v-5.33h-1.16V64.9h1.16V62.49Z" transform="translate(-952.713 -61.8)" fill="#009967"/>
  <path id="Path_9017" data-name="Path 9017" d="M1053.155,67.608v6.163h-2.262V68.346a2.366,2.366,0,0,0-.192-1.1,1.284,1.284,0,0,0-1.255-.633,1.684,1.684,0,0,0-1.284.527,2.239,2.239,0,0,0-.489,1.515v5.119h-2.263v-12h2.263v4.237a2.039,2.039,0,0,1,.957-.959,3.054,3.054,0,0,1,1.573-.412,2.769,2.769,0,0,1,2.962,2.981Z" transform="translate(-952.996 -61.77)" fill="#009967"/>
  <path id="Path_9018" data-name="Path 9018" d="M1064.511,69.447a4.671,4.671,0,0,1-1.313,3.547,4.28,4.28,0,0,1-3.068,1.141,4.216,4.216,0,0,1-3.038-1.141,5.387,5.387,0,0,1,0-7.093,4.376,4.376,0,0,1,7.419,3.547Zm-2.31,0a3.6,3.6,0,0,0-.375-1.773,1.994,1.994,0,0,0-3.374,0,3.77,3.77,0,0,0-.384,1.792,3.655,3.655,0,0,0,.376,1.773,1.992,1.992,0,0,0,3.362,0A3.687,3.687,0,0,0,1062.2,69.447Z" transform="translate(-953.425 -61.894)" fill="#009967"/>
  <path id="Path_9019" data-name="Path 9019" d="M1068.773,61.77v12h-2.252v-12Z" transform="translate(-953.871 -61.77)" fill="#009967"/>
  <path id="Path_9020" data-name="Path 9020" d="M1078.308,67.325v4.793a2.99,2.99,0,0,0,.125.959.631.631,0,0,0,.394.364v.374h-2.456c-.075-.3-.133-.508-.162-.594a2.908,2.908,0,0,1,0-.479,4.278,4.278,0,0,1-.958.853,3.49,3.49,0,0,1-1.774.46,2.653,2.653,0,0,1-1.792-.613,2.487,2.487,0,0,1-.825-2,2.781,2.781,0,0,1,.719-1.994,2.95,2.95,0,0,1,1.764-.853l2.031-.3a1.3,1.3,0,0,0,.633-.259.571.571,0,0,0,.173-.441.885.885,0,0,0-.517-.891,2.327,2.327,0,0,0-.959-.153,1.353,1.353,0,0,0-1.1.422,1.535,1.535,0,0,0-.277.815h-2.205a3.14,3.14,0,0,1,1.352-2.569,4.788,4.788,0,0,1,2.482-.546,4.625,4.625,0,0,1,2.167.46A2.212,2.212,0,0,1,1078.308,67.325Zm-2.2,3.355V69.539a1.057,1.057,0,0,1-.488.259,6.923,6.923,0,0,1-1.054.24,2.618,2.618,0,0,0-1.073.355,1.14,1.14,0,0,0-.442.959.96.96,0,0,0,.356.834,1.056,1.056,0,0,0,.67.24,2.2,2.2,0,0,0,1.409-.489A1.532,1.532,0,0,0,1076.112,70.68Z" transform="translate(-954.052 -61.89)" fill="#009967"/>
  <path id="Path_9021" data-name="Path 9021" d="M1083.542,62.49V64.9h1.408v1.658h-1.408v4.793c0,.316,0,.508.143.6a1.312,1.312,0,0,0,.776.134h.49V73.83a5.127,5.127,0,0,1-.566,0h-.786a2.741,2.741,0,0,1-1.917-.508,2,2,0,0,1-.411-1.428l0-5.33H1080.1V64.9h1.169V62.49Z" transform="translate(-954.434 -61.8)" fill="#009967"/>
  <path id="Path_9022" data-name="Path 9022" d="M1094.756,65v8.9h-2.167V72.668a2.878,2.878,0,0,1-2.637,1.514,2.76,2.76,0,0,1-2.118-.8,3.392,3.392,0,0,1-.815-2.492V65h2.252v5.512a1.681,1.681,0,0,0,.47,1.342,1.507,1.507,0,0,0,1.007.3,1.651,1.651,0,0,0,1.15-.412,2.054,2.054,0,0,0,.6-1.62V65Z" transform="translate(-954.721 -61.904)" fill="#009967"/>
  <path id="Path_9023" data-name="Path 9023" d="M1109.47,67.732V73.9h-2.264V68.47a2.1,2.1,0,0,0-.334-1.332,1.087,1.087,0,0,0-.892-.4,1.369,1.369,0,0,0-1.16.479,2.153,2.153,0,0,0-.356,1.323V73.9h-2.252V68.537a3.02,3.02,0,0,0-.172-1.189,1.179,1.179,0,0,0-1.2-.613,1.229,1.229,0,0,0-1.083.47,2.168,2.168,0,0,0-.327,1.265V73.9h-2.252v-8.9h2.158v1.3a3.383,3.383,0,0,1,.785-.958,2.694,2.694,0,0,1,1.7-.556,2.881,2.881,0,0,1,1.438.355,3.317,3.317,0,0,1,.958,1.064,3.584,3.584,0,0,1,1.046-1.093,2.415,2.415,0,0,1,1.245-.326,2.964,2.964,0,0,1,2.119.748A2.93,2.93,0,0,1,1109.47,67.732Z" transform="translate(-955.142 -61.895)" fill="#009967"/>
</svg>
